<?xml version="1.0" encoding="UTF-8"?>
<svg id="Layer_2" data-name="Layer 2" xmlns="http://www.w3.org/2000/svg" viewBox="0 0 727.4 190.01">
  <defs>
    <style>
      .cls-1 {
        fill: #6d6e71;
      }

      .cls-1, .cls-2 {
        stroke-width: 0px;
      }

      .cls-2, .cls-3 {
        fill: #307ab9;
      }

      .cls-3 {
        font-family: Calibri-Bold, Calibri;
        font-size: 27.16px;
        font-weight: 700;
      }

      .cls-4 {
        fill: none;
        stroke: #6d6e71;
        stroke-miterlimit: 10;
        stroke-width: 3.67px;
      }
    </style>
  </defs>
  <g id="Layer_1-2" data-name="Layer 1">
    <path class="cls-2" d="m708.6,9.3c0-1.32.25-2.54.75-3.68.5-1.13,1.18-2.12,2.04-2.95.86-.83,1.86-1.49,3-1.96,1.14-.47,2.35-.71,3.64-.71s2.47.24,3.61.71c1.14.48,2.14,1.13,2.99,1.96.85.83,1.53,1.82,2.03,2.95.5,1.13.75,2.36.75,3.68s-.25,2.6-.75,3.74c-.5,1.14-1.17,2.13-2.03,2.98-.85.84-1.85,1.5-2.99,1.98-1.14.48-2.35.71-3.61.71s-2.5-.24-3.64-.71c-1.14-.48-2.14-1.13-3-1.98s-1.54-1.83-2.04-2.98c-.5-1.14-.75-2.39-.75-3.74Zm1.7,0c0,1.15.2,2.21.59,3.19s.93,1.82,1.62,2.54c.69.72,1.51,1.28,2.45,1.69.94.41,1.96.61,3.06.61s2.09-.2,3.03-.61,1.75-.97,2.44-1.69c.69-.72,1.23-1.56,1.62-2.54s.59-2.04.59-3.19-.2-2.16-.59-3.13c-.39-.97-.93-1.8-1.62-2.51s-1.5-1.27-2.44-1.68c-.93-.41-1.94-.61-3.03-.61s-2.12.2-3.06.61c-.94.41-1.76.97-2.45,1.68s-1.23,1.55-1.62,2.51c-.39.97-.59,2.01-.59,3.13Zm4.08-5.43h4.23c1.3,0,2.26.26,2.89.77.62.52.94,1.3.94,2.35,0,.98-.28,1.7-.83,2.16-.55.46-1.23.73-2.05.81l3.12,4.83h-1.83l-2.98-4.7h-1.8v4.7h-1.7V3.88Zm1.7,4.85h1.78c.37,0,.72-.01,1.08-.04.35-.02.66-.1.92-.21.27-.12.48-.3.64-.54.16-.24.24-.58.24-1.01,0-.37-.07-.66-.21-.88-.14-.22-.32-.38-.55-.5-.22-.12-.48-.2-.78-.24-.29-.04-.58-.06-.86-.06h-2.25v3.48Z"/>
    <g>
      <path class="cls-2" d="m12.34,19.67v38.95h19.96v9.94H1.56V19.67h10.77Z"/>
      <path class="cls-2" d="m70.07,19.67v9.94h-22.45v9.12h21.2v9.94h-21.2v9.94h23.69v9.94h-34.46V19.67h33.22Z"/>
      <path class="cls-2" d="m103.15,19.67l21.27,48.9h-12.15l-4.21-10.36h-18.99l-4.07,10.36h-11.88l21.13-48.9h8.91Zm-10.7,29.42h11.95l-6.01-15.19-5.94,15.19Z"/>
      <path class="cls-2" d="m127.53,19.67h16.57c8.01,0,14.71,1.8,20.03,5.59,5.32,3.87,8.49,10.43,8.49,18.92.07,15.19-12.57,24.72-27.21,24.38h-17.89V19.67Zm10.77,38.95h5.94c10.43,0,17.2-4.56,17.2-14.85,0-4.63-1.59-8.15-4.7-10.57-3.18-2.42-7.11-3.59-11.81-3.59h-6.63v29.01Z"/>
      <path class="cls-2" d="m211.78,19.67v9.94h-22.45v9.12h21.2v9.94h-21.2v9.94h23.69v9.94h-34.46V19.67h33.22Z"/>
      <path class="cls-2" d="m239.12,19.67c8.84,0,18.09,2.9,18.09,14.85,0,7.18-3.94,12.09-10.57,13.4l12.43,20.65h-12.91l-10.22-19.54h-5.32v19.54h-10.77V19.67h19.27Zm-1.79,20.23c5.73,0,8.7-1.24,8.7-5.46,0-3.8-2.69-5.66-8.08-5.66h-7.32v11.12h6.7Z"/>
      <path class="cls-2" d="m321.72,25.61l-8.29,6.77c-2.21-2.69-5.32-4.01-9.25-4.01s-7.32,1.45-10.01,4.35c-2.76,2.9-4.14,6.7-4.14,11.4,0,4.28,1.24,7.94,3.8,11.05,2.56,3.11,5.87,4.7,10.01,4.7,4.35,0,7.73-1.73,10.08-5.25l8.98,6.7c-3.66,5.46-10.7,8.49-17.68,8.49-7.73,0-14.09-2.35-18.99-7.04-4.9-4.7-7.39-10.91-7.39-18.65s2.49-13.88,7.39-18.65c4.9-4.7,11.19-7.04,18.99-7.04,6.63,0,12.91,2.56,16.51,7.18Z"/>
      <path class="cls-2" d="m369.78,25.47c4.9,4.7,7.32,10.91,7.32,18.65s-2.49,13.88-7.39,18.58c-4.9,4.77-11.26,7.11-18.99,7.11s-14.09-2.35-18.99-7.04c-4.9-4.7-7.39-10.91-7.39-18.65s2.49-13.95,7.39-18.65,11.19-7.04,18.99-7.04,14.16,2.35,19.06,7.04Zm-34.25,18.65c0,4.63,1.38,8.43,4.21,11.33,2.76,2.97,6.42,4.42,10.98,4.42s8.15-1.45,10.98-4.42c2.83-2.97,4.21-6.7,4.21-11.33s-1.38-8.43-4.21-11.4c-2.83-2.9-6.49-4.35-11.05-4.35s-8.15,1.45-10.91,4.35c-2.83,2.97-4.21,6.77-4.21,11.4Z"/>
      <path class="cls-2" d="m397.27,19.67l20.79,33.98h.14V19.67h10.77v48.9h-14.09l-21.34-34.81h-.14v34.81h-10.77V19.67h14.64Z"/>
      <path class="cls-2" d="m468.67,23.54l-7.39,8.08c-1.66-2.14-4.97-3.25-7.8-3.25-3.59,0-7.25,1.73-7.25,5.04,0,1.17.34,2.14,1.24,2.9.83.83,1.31,1.31,2.97,1.86,1.59.62,1.93.83,4.14,1.38,1.04.35,1.79.55,2.21.69,3.38,1.04,5.59,2.07,8.15,4.01,2.49,2,3.8,5.25,3.8,9.46,0,5.25-1.8,9.25-5.39,11.95-3.59,2.76-8.08,4.14-13.47,4.14-6.56,0-12.09-2.07-16.44-6.15l7.67-8.43c2.42,3.11,5.59,4.63,9.39,4.63,1.87,0,3.52-.41,5.11-1.31,1.59-.83,2.35-2.07,2.35-3.8,0-2.14-1.38-3.38-3.18-4.56-.69-.41-2.69-1.04-3.45-1.31-.83-.28-3.25-1.04-4.01-1.31-3.59-1.17-5.66-2.14-8.29-4.14-2.62-1.93-4.01-5.04-4.01-9.12,0-4.97,1.87-8.84,5.53-11.67s8.01-4.21,13.12-4.21c6.08,0,11.05,1.73,14.99,5.11Z"/>
      <path class="cls-2" d="m474.96,19.67h10.77v29.77c0,2.97.97,5.39,2.83,7.39,1.87,2,4.21,3.04,7.04,3.04s4.97-.97,6.91-2.9c1.93-1.93,2.9-4.42,2.9-7.53v-29.77h10.77v30.25c0,5.73-1.73,10.43-5.25,14.23-3.52,3.8-8.63,5.66-15.33,5.66s-11.81-1.86-15.33-5.66-5.32-8.49-5.32-14.23v-30.25Z"/>
      <path class="cls-2" d="m535.52,19.67v38.95h19.96v9.94h-30.73V19.67h10.77Z"/>
      <path class="cls-2" d="m587.46,19.67v9.53h-13.95v39.36h-10.77V29.2h-13.95v-9.53h38.67Z"/>
      <path class="cls-2" d="m601.75,19.67v48.9h-10.77V19.67h10.77Z"/>
      <path class="cls-2" d="m624.4,19.67l20.79,33.98h.14V19.67h10.77v48.9h-14.09l-21.34-34.81h-.14v34.81h-10.77V19.67h14.64Z"/>
      <path class="cls-2" d="m707.48,24.71l-7.6,8.29c-2.9-3.11-6.84-4.63-11.81-4.63-4.56,0-8.22,1.45-11.05,4.35-2.83,2.97-4.21,6.77-4.21,11.4s1.38,8.43,4.21,11.33c2.83,2.97,6.49,4.42,11.05,4.42,3.66,0,7.04-.83,10.08-2.42v-7.94h-8.77v-9.94h19.13v25.55c-5.87,3.11-12.71,4.7-20.44,4.7s-14.16-2.35-19.06-7.04c-4.9-4.63-7.39-10.84-7.39-18.65s2.49-13.95,7.39-18.65,11.26-7.04,19.06-7.04c8.36,0,14.78,2.07,19.41,6.28Z"/>
    </g>
    <line class="cls-4" x1="160.87" y1="122.86" y2="122.86"/>
    <line class="cls-4" x1="705.56" y1="122.86" x2="544.69" y2="122.86"/>
    <g>
      <path class="cls-1" d="m223.35,111.01v12.14c0,4.9-2.96,8.16-8.74,8.16h-21.75c-7.48,0-11.94-3.98-11.94-9.76,0-2.87.83-5.83,1.55-7.77l5.05,1.31c-.68,2.57-.92,3.93-.92,5.29,0,3.79,2.67,5.78,7.14,5.78h19.18c3.35,0,4.71-1.31,4.71-5.05v-10.1h5.73Zm-28.11-3.64c0-1.8,1.36-3.06,3.11-3.06s3.06,1.26,3.06,3.06-1.26,3.11-3.06,3.11-3.11-1.36-3.11-3.11Zm7.91,0c0-1.8,1.31-3.06,3.16-3.06,1.7,0,3.01,1.26,3.01,3.06s-1.31,3.11-3.01,3.11c-1.84,0-3.16-1.36-3.16-3.11Z"/>
      <path class="cls-1" d="m229.46,94.6h5.73v36.71h-5.73v-36.71Z"/>
      <path class="cls-1" d="m238.15,135.24c4.42-.63,6.21-2.04,6.21-6.17v-18.06h5.73v16.9c0,7.82-3.4,11.75-11.07,12.28l-.87-4.95Z"/>
      <path class="cls-1" d="m256.5,122.23v-27.63h5.73v27.48c0,2.82,1.51,4.08,5.05,4.08.63,0,.97.87.97,2.72,0,1.7-.34,2.43-.97,2.43-7.96,0-10.78-2.96-10.78-9.08Z"/>
      <path class="cls-1" d="m267.28,126.16h2.52c.68,0,.97.87.97,2.72,0,1.7-.29,2.43-.97,2.43h-2.52v-5.15Z"/>
      <path class="cls-1" d="m269.81,126.16h2.52c.68,0,.97.87.97,2.72,0,1.7-.29,2.43-.97,2.43h-2.52v-5.15Z"/>
      <path class="cls-1" d="m272.33,126.16h1.07c3.06,0,4.13-1.26,4.13-4.81v-6.8h5.73v8.35c0,2.38,1.5,3.25,3.79,3.25,3.01,0,4.03-1.26,4.03-4.81v-6.8h5.73v8.35c0,2.18,1.31,3.25,3.88,3.25,3.2,0,3.98-1.55,3.98-4.95v-10.2h5.73v10.24c0,3.4,1.94,4.9,5.19,4.9.63,0,.97.87.97,2.72,0,1.7-.34,2.43-.97,2.43-3.54,0-5.78-1.02-7.09-2.86-1.55,1.84-4.08,2.86-7.19,2.86-2.52,0-4.9-.73-6.55-2.23-1.75,1.55-3.98,2.23-6.99,2.23-2.77,0-5.29-.49-6.9-2.28-1.36,1.36-3.64,2.28-7.48,2.28h-1.07v-5.15Zm17.53-23.11c1.8,0,3.06,1.26,3.06,3.06s-1.26,3.16-3.06,3.16-3.11-1.36-3.11-3.16,1.36-3.06,3.11-3.06Zm4.13-6.65c1.8,0,3.06,1.41,3.06,3.11,0,1.8-1.26,3.16-3.06,3.16s-3.06-1.36-3.06-3.16c0-1.7,1.31-3.11,3.06-3.11Zm.68,9.71c0-1.8,1.31-3.06,3.16-3.06,1.7,0,3.01,1.26,3.01,3.06s-1.31,3.16-3.01,3.16c-1.84,0-3.16-1.36-3.16-3.16Z"/>
      <path class="cls-1" d="m315.59,126.16h2.52c.68,0,.97.87.97,2.72,0,1.7-.29,2.43-.97,2.43h-2.52v-5.15Z"/>
      <path class="cls-1" d="m335.98,128.88c0,1.7-.34,2.43-.97,2.43-3.59,0-5.88-1.07-7.14-2.91-1.7,2.09-4.56,2.91-8.74,2.91h-1.02v-5.15h.97c3.88,0,5-1.36,5-5.68v-9.47h5.73v10.24c0,3.4,1.94,4.9,5.2,4.9.63,0,.97.87.97,2.72Zm-16.7-26.61c0-1.8,1.36-3.06,3.11-3.06s3.06,1.26,3.06,3.06-1.26,3.11-3.06,3.11-3.11-1.36-3.11-3.11Zm7.91,0c0-1.8,1.31-3.06,3.16-3.06,1.7,0,3.01,1.26,3.01,3.06s-1.31,3.11-3.01,3.11c-1.84,0-3.16-1.36-3.16-3.11Z"/>
      <path class="cls-1" d="m335.01,126.16h2.52c.68,0,.97.87.97,2.72,0,1.7-.29,2.43-.97,2.43h-2.52v-5.15Z"/>
      <path class="cls-1" d="m338.6,126.16c3.06,0,4.13-1.26,4.13-4.81v-6.8h5.73v8.35c0,2.38,1.5,3.25,3.79,3.25,3.01,0,4.03-1.26,4.03-4.81v-6.8h5.73v8.35c0,2.18,1.31,3.25,3.88,3.25,3.2,0,3.98-1.55,3.98-4.95v-10.2h5.73v11.9c0,5.24-3.59,8.4-9.08,8.4-2.52,0-4.9-.73-6.55-2.23-1.75,1.55-3.98,2.23-6.99,2.23-2.77,0-5.29-.49-6.89-2.28-1.36,1.36-3.64,2.28-7.48,2.28h-1.07v-5.15h1.07Z"/>
      <path class="cls-1" d="m379.14,126.16h9.18v-21.56h5.73v21.56h2.52c3.45,0,4.86-1.65,4.86-5.24v-26.32h5.73v26.66c0,3.4,1.94,4.9,5.2,4.9.63,0,.97.87.97,2.72,0,1.7-.34,2.43-.97,2.43-3.59,0-5.83-1.07-7.09-2.91-1.55,1.84-3.98,2.91-7.33,2.91h-18.79v-5.15Z"/>
      <path class="cls-1" d="m412.35,126.16c3.88,0,4.76-1.41,4.76-5.68v-25.88h5.73v27.09c0,7.23-3.5,9.61-10.49,9.61v-5.15Z"/>
      <path class="cls-1" d="m440.17,135.24c4.42-.63,6.21-2.04,6.21-6.17v-18.06h5.73v16.9c0,7.82-3.4,11.75-11.07,12.28l-.87-4.95Z"/>
      <path class="cls-1" d="m471.68,126.16v-.1c0-4.9-4.81-9.56-8.74-11.99l3.45-4.61c8.3,5.39,10.63,10.68,10.97,16.7h3.64c.68,0,.97.87.97,2.72,0,1.7-.29,2.43-.97,2.43h-24.03v-5.15h14.71Z"/>
      <path class="cls-1" d="m481,126.16h2.52c.68,0,.97.87.97,2.72,0,1.7-.29,2.43-.97,2.43h-2.52v-5.15Z"/>
      <path class="cls-1" d="m483.53,126.16h2.52c.68,0,.97.87.97,2.72,0,1.7-.29,2.43-.97,2.43h-2.52v-5.15Z"/>
      <path class="cls-1" d="m486.05,126.16h2.52c.68,0,.97.87.97,2.72,0,1.7-.29,2.43-.97,2.43h-2.52v-5.15Z"/>
      <path class="cls-1" d="m488.57,126.16h2.52c.68,0,.97.87.97,2.72,0,1.7-.29,2.43-.97,2.43h-2.52v-5.15Z"/>
      <path class="cls-1" d="m508.96,128.88c0,1.7-.34,2.43-.97,2.43-3.59,0-5.88-1.07-7.14-2.91-1.7,2.09-4.56,2.91-8.74,2.91h-1.02v-5.15h.97c3.88,0,5-1.36,5-5.68v-9.47h5.73v10.24c0,3.4,1.94,4.9,5.2,4.9.63,0,.97.87.97,2.72Zm-10.78,9.52c0,1.75-1.26,3.06-3.06,3.06s-3.11-1.31-3.11-3.06,1.36-3.16,3.11-3.16,3.06,1.36,3.06,3.16Zm7.91,0c0,1.75-1.31,3.06-3.01,3.06-1.85,0-3.16-1.31-3.16-3.06s1.31-3.16,3.16-3.16c1.7,0,3.01,1.36,3.01,3.16Z"/>
      <path class="cls-1" d="m507.99,126.16h2.52c.68,0,.97.87.97,2.72,0,1.7-.29,2.43-.97,2.43h-2.52v-5.15Z"/>
      <path class="cls-1" d="m510.52,126.16h2.52c.68,0,.97.87.97,2.72,0,1.7-.29,2.43-.97,2.43h-2.52v-5.15Z"/>
      <path class="cls-1" d="m513.04,126.16c3.88,0,4.76-1.41,4.76-5.68v-25.88h5.73v27.09c0,7.23-3.5,9.61-10.49,9.61v-5.15Z"/>
    </g>
    <text class="cls-3" transform="translate(66.21 180.53) scale(.98 1)"><tspan x="0" y="0">INTELLECTUAL PROPERTY - TRADEMARK REGISTRY </tspan></text>
  </g>
</svg>